<svg width="34" height="27" viewBox="0 0 34 27" fill="none" xmlns="http://www.w3.org/2000/svg">
<g opacity="0.4" clip-path="url(#clip0_1_840)">
<g clip-path="url(#clip1_1_840)">
<path d="M6.52242 25.3537V23.6969C6.53182 23.5578 6.51173 23.4184 6.46348 23.2876C6.41522 23.1568 6.33988 23.0377 6.24239 22.938C6.14564 22.8394 6.02896 22.7625 5.90014 22.7125C5.77131 22.6625 5.63331 22.6405 5.49533 22.6481C5.31408 22.636 5.13294 22.6733 4.97124 22.756C4.80955 22.8388 4.67337 22.9639 4.57724 23.118C4.48875 22.9695 4.36194 22.8475 4.21009 22.7648C4.05825 22.6822 3.88696 22.6418 3.71417 22.6481C3.56332 22.6404 3.41311 22.6726 3.27876 22.7417C3.14441 22.8107 3.03068 22.9139 2.9491 23.041V22.7151H2.37305V25.3517H2.9461V23.8899C2.92834 23.7545 2.9555 23.617 3.02343 23.4985C3.09136 23.38 3.19629 23.2871 3.32213 23.234C3.40545 23.2 3.4953 23.185 3.58515 23.19C3.96219 23.19 4.15421 23.438 4.15421 23.8849V25.3527H4.72726V23.8899C4.7099 23.7531 4.73811 23.6145 4.80754 23.4953C4.87696 23.3762 4.98372 23.2833 5.11129 23.231C5.19581 23.1977 5.28669 23.1837 5.37731 23.19C5.76535 23.19 5.95137 23.438 5.95137 23.8849V25.3527H6.52142L6.52242 25.3537ZM15.0092 22.7161H14.0831V21.9162H13.51V22.7161H12.98V23.24H13.51V24.4428C13.51 25.0547 13.7451 25.4197 14.4161 25.4197C14.6661 25.4197 14.9122 25.3497 15.1242 25.2157L14.9632 24.7238C14.8111 24.8159 14.6379 24.8675 14.4601 24.8737C14.1871 24.8737 14.0831 24.6968 14.0831 24.4318V23.24H15.0092V22.7161ZM19.8556 22.6501C19.7165 22.6456 19.5788 22.6791 19.4573 22.7471C19.3359 22.8151 19.2353 22.915 19.1665 23.036V22.7161H18.6045V25.3527H19.1725V23.8749C19.1725 23.439 19.3586 23.196 19.7186 23.196C19.8401 23.1942 19.9608 23.2167 20.0736 23.262L20.2486 22.7101C20.1219 22.6685 19.989 22.6482 19.8556 22.6501ZM12.532 22.926C12.211 22.7331 11.8411 22.6373 11.4669 22.6501C10.8058 22.6501 10.3738 22.97 10.3738 23.4939C10.3738 23.9239 10.6908 24.1888 11.2748 24.2718L11.5489 24.3108C11.8589 24.3548 12.0069 24.4378 12.0069 24.5868C12.0069 24.7908 11.7999 24.9067 11.4119 24.9067C11.0993 24.9158 10.7928 24.8185 10.5428 24.6308L10.2698 25.0777C10.6008 25.3107 10.9978 25.4307 11.4009 25.4197C12.1549 25.4197 12.591 25.0607 12.591 24.5588C12.591 24.0569 12.2479 23.8529 11.6799 23.7689L11.4059 23.7309C11.1608 23.6979 10.9638 23.6479 10.9638 23.472C10.9638 23.295 11.1498 23.163 11.4609 23.163C11.7489 23.166 12.0309 23.244 12.2809 23.389L12.531 22.926H12.532ZM27.7503 22.6501C27.6112 22.6456 27.4735 22.6791 27.352 22.7471C27.2306 22.8151 27.13 22.915 27.0612 23.036V22.7161H26.4992V25.3527H27.0672V23.8749C27.0672 23.439 27.2533 23.196 27.6133 23.196C27.7348 23.1942 27.8555 23.2167 27.9683 23.262L28.1433 22.7101C28.0137 22.6634 27.8771 22.6394 27.7393 22.6391L27.7493 22.6491L27.7503 22.6501ZM20.4297 24.0299C20.4229 24.2147 20.4545 24.3989 20.5223 24.5709C20.5901 24.743 20.6927 24.8992 20.8237 25.0297C20.9544 25.159 21.1107 25.2596 21.2826 25.3248C21.4545 25.3901 21.6382 25.4186 21.8218 25.4087C22.1638 25.4257 22.4988 25.3137 22.7619 25.0937L22.4888 24.6308C22.2929 24.7818 22.0531 24.8649 21.8058 24.8677C21.5952 24.8504 21.399 24.754 21.2567 24.5978C21.1136 24.4409 21.0343 24.2362 21.0343 24.0239C21.0343 23.8115 21.1136 23.6069 21.2567 23.45C21.3993 23.2936 21.5959 23.1971 21.8068 23.18C22.0528 23.182 22.2928 23.265 22.4888 23.417L22.7619 22.953C22.4977 22.7376 22.1621 22.6294 21.8218 22.6501C21.6381 22.6394 21.4542 22.6676 21.2822 22.7329C21.1102 22.7982 20.954 22.8991 20.8237 23.029C20.692 23.1591 20.5888 23.3152 20.5208 23.4873C20.4528 23.6595 20.4214 23.8439 20.4287 24.0289L20.4297 24.0299ZM25.7501 24.0299V22.7161H25.1821V23.036C25.0858 22.9113 24.9612 22.8113 24.8186 22.7442C24.676 22.6771 24.5195 22.6448 24.362 22.6501C24.001 22.6501 23.6529 22.7951 23.3969 23.054C23.14 23.3135 22.996 23.6638 22.996 24.0289C22.996 24.3939 23.14 24.7443 23.3969 25.0037C23.6529 25.2637 24.001 25.4087 24.363 25.4087C24.5207 25.4147 24.6776 25.3827 24.8203 25.3154C24.9631 25.248 25.0875 25.1473 25.1831 25.0217V25.3537H25.7501V24.0289V24.0299ZM23.6359 24.0299C23.645 23.8752 23.6988 23.7264 23.7907 23.6016C23.8827 23.4769 24.0089 23.3815 24.154 23.327C24.2986 23.2735 24.4558 23.264 24.6058 23.2996C24.7558 23.3351 24.8919 23.4142 24.9971 23.5269C25.1026 23.6399 25.1732 23.781 25.2002 23.9332C25.2272 24.0853 25.2096 24.2421 25.1494 24.3845C25.0892 24.5268 24.989 24.6487 24.861 24.7354C24.733 24.822 24.5826 24.8697 24.428 24.8727C24.3196 24.8742 24.2121 24.853 24.1123 24.8105C24.0126 24.768 23.9229 24.705 23.849 24.6258C23.7743 24.5463 23.7169 24.4522 23.6802 24.3495C23.6435 24.2468 23.6285 24.1377 23.6359 24.0289V24.0299ZM16.7793 22.6501C16.5996 22.6529 16.4222 22.6912 16.2574 22.763C16.0927 22.8347 15.9437 22.9384 15.8192 23.068C15.5662 23.3311 15.4271 23.6834 15.4321 24.0484C15.4372 24.4134 15.586 24.7617 15.8462 25.0177C16.1063 25.2727 16.4563 25.4137 16.8183 25.4077C17.2064 25.4257 17.5874 25.2977 17.8884 25.0497L17.6154 24.6248C17.4002 24.7994 17.1325 24.8966 16.8553 24.9007C16.6677 24.9161 16.4814 24.8577 16.3363 24.7378C16.1901 24.6169 16.0962 24.4442 16.0743 24.2558H18.0144V24.0349C18.0144 23.207 17.5064 22.6551 16.7743 22.6551L16.7793 22.6501ZM16.7793 23.163C16.8646 23.161 16.9494 23.1761 17.0287 23.2074C17.1081 23.2386 17.1804 23.2854 17.2414 23.345C17.366 23.4651 17.438 23.6298 17.4414 23.8029H16.0743C16.0841 23.6261 16.1623 23.4601 16.2923 23.34C16.4223 23.22 16.5923 23.157 16.7683 23.163H16.7793ZM31.0336 24.0349V21.6572H30.4535V23.037C30.3574 22.9123 30.2331 22.8121 30.0907 22.7448C29.9483 22.6776 29.7919 22.6451 29.6345 22.6501C29.2724 22.6501 28.9244 22.7951 28.6694 23.054C28.4125 23.3135 28.2684 23.6638 28.2684 24.0289C28.2684 24.3939 28.4125 24.7443 28.6694 25.0037C28.9254 25.2637 29.2724 25.4087 29.6345 25.4087C29.7922 25.4147 29.9491 25.3827 30.0918 25.3154C30.2345 25.248 30.359 25.1473 30.4545 25.0217V25.3537H31.0226L31.0326 24.0339L31.0336 24.0349ZM28.9194 24.0349C28.9287 23.8805 28.9825 23.7321 29.0742 23.6075C29.1659 23.483 29.2917 23.3877 29.4365 23.333C29.5812 23.2793 29.7386 23.2697 29.8888 23.3052C30.039 23.3408 30.1753 23.42 30.2805 23.5329C30.3861 23.6459 30.4567 23.7871 30.4837 23.9394C30.5107 24.0917 30.4929 24.2485 30.4326 24.3909C30.3723 24.5333 30.272 24.6552 30.1438 24.7418C30.0157 24.8283 29.8651 24.8759 29.7105 24.8787C29.6022 24.8801 29.4949 24.8588 29.3954 24.8163C29.2958 24.7738 29.2063 24.7109 29.1324 24.6318C29.0577 24.5523 29.0002 24.4583 28.9636 24.3556C28.9269 24.2528 28.9119 24.1437 28.9194 24.0349ZM9.7347 24.0349V22.7161H9.15465V23.036C9.05844 22.9114 8.93402 22.8115 8.79162 22.7444C8.64922 22.6773 8.49292 22.645 8.33558 22.6501C7.97355 22.6501 7.62551 22.7951 7.37049 23.054C7.11362 23.3135 6.96953 23.6638 6.96953 24.0289C6.96953 24.3939 7.11362 24.7443 7.37049 25.0037C7.62651 25.2637 7.97355 25.4087 8.33558 25.4087C8.4933 25.4147 8.65016 25.3827 8.79291 25.3154C8.93565 25.248 9.06007 25.1473 9.15565 25.0217V25.3537H9.7237L9.7337 24.0339L9.7347 24.0349ZM7.62051 24.0349C7.62981 23.8805 7.68357 23.7321 7.77531 23.6075C7.86705 23.483 7.99285 23.3877 8.13756 23.333C8.28229 23.2793 8.43967 23.2697 8.58987 23.3052C8.74007 23.3408 8.87639 23.42 8.98164 23.5329C9.10661 23.6662 9.18219 23.8382 9.19581 24.0204C9.20943 24.2026 9.16027 24.3839 9.0565 24.5343C8.95273 24.6847 8.8006 24.795 8.62541 24.8469C8.45023 24.8988 8.26254 24.8893 8.09356 24.8197C7.9921 24.7778 7.9006 24.715 7.82497 24.6354C7.74934 24.5558 7.69127 24.4613 7.65452 24.3578C7.61747 24.2544 7.60215 24.1445 7.60951 24.0349H7.62051ZM31.9787 24.9727C32.0275 24.975 32.0745 24.9914 32.1142 25.0197C32.154 25.0481 32.1847 25.0873 32.2027 25.1327C32.2169 25.1648 32.2243 25.1996 32.2243 25.2347C32.2243 25.2698 32.2169 25.3045 32.2027 25.3367C32.1886 25.3669 32.1701 25.3949 32.1477 25.4197C32.123 25.4426 32.0946 25.4611 32.0637 25.4746C32.0308 25.4888 31.9955 25.4963 31.9597 25.4966C31.9239 25.4963 31.8885 25.4888 31.8557 25.4746C31.8244 25.4612 31.7957 25.4427 31.7707 25.4197C31.7232 25.3696 31.6961 25.3037 31.6947 25.2347C31.6947 25.1997 31.7027 25.1647 31.7167 25.1327C31.7295 25.1012 31.7485 25.0727 31.7726 25.0486C31.7966 25.0246 31.8252 25.0056 31.8567 24.9927C31.8919 24.9784 31.9297 24.9716 31.9677 24.9727H31.9787ZM31.9787 25.4387C32.0063 25.4391 32.0336 25.4332 32.0587 25.4217C32.0824 25.4119 32.1036 25.3968 32.1207 25.3777C32.1322 25.3618 32.1413 25.3442 32.1477 25.3257C32.1587 25.3004 32.1644 25.2732 32.1644 25.2457C32.1644 25.2182 32.1587 25.1909 32.1477 25.1657C32.1376 25.1412 32.123 25.1189 32.1047 25.0997C32.0872 25.081 32.0656 25.0667 32.0417 25.0577C32.0168 25.0467 31.9899 25.041 31.9627 25.041C31.9355 25.041 31.9086 25.0467 31.8837 25.0577C31.8597 25.0666 31.8381 25.081 31.8207 25.0997C31.7827 25.1389 31.7612 25.1911 31.7607 25.2457C31.7606 25.2723 31.7659 25.2987 31.7762 25.3232C31.7865 25.3478 31.8016 25.37 31.8207 25.3887C31.8377 25.4087 31.8587 25.4237 31.8827 25.4327C31.9107 25.4417 31.9397 25.4427 31.9677 25.4387H31.9787ZM31.9947 25.1107C32.0202 25.1094 32.0454 25.1172 32.0657 25.1327C32.0737 25.1394 32.0801 25.1478 32.0844 25.1574C32.0888 25.1669 32.0909 25.1772 32.0907 25.1877C32.0917 25.1977 32.0907 25.2057 32.0867 25.2147C32.0836 25.2235 32.0785 25.2314 32.0717 25.2377C32.0558 25.2522 32.0352 25.2607 32.0137 25.2617L32.0937 25.3557H32.0307L31.9597 25.2617H31.9347V25.3557H31.8747V25.1107H31.9947ZM31.9347 25.1577V25.2207H31.9947C32.0057 25.2237 32.0167 25.2237 32.0277 25.2207C32.0296 25.2168 32.0306 25.2125 32.0306 25.2082C32.0306 25.2038 32.0296 25.1996 32.0277 25.1957C32.0294 25.1926 32.0304 25.1892 32.0307 25.1857C32.0307 25.1807 32.0297 25.1777 32.0277 25.1737C32.0169 25.1704 32.0054 25.1704 31.9947 25.1737L31.9347 25.1577Z" fill="#434A58"/>
<path d="M16.647 18.2396C18.7211 18.2396 20.4023 14.7441 20.4023 10.4328C20.4023 6.12142 18.7211 2.62695 16.647 2.62695C14.5718 2.62695 12.8906 6.12142 12.8906 10.4328C12.8906 14.7441 14.5718 18.2396 16.647 18.2396Z" fill="#C0C0C0"/>
<path d="M12.8915 10.4301C12.8893 8.92721 13.2264 7.44324 13.8775 6.08872C14.5265 4.73871 15.4738 3.55374 16.6478 2.62325C15.2027 1.47158 13.46 0.75427 11.6227 0.554941C9.78549 0.355611 7.92941 0.68247 6.27087 1.49742C4.60731 2.31514 3.20776 3.58476 2.23251 5.16086C1.25247 6.74369 0.733635 8.56851 0.734376 10.4301C0.734376 12.2928 1.25442 14.1195 2.23351 15.6993C3.20891 17.275 4.60845 18.5443 6.27187 19.3617C7.9302 20.1761 9.78586 20.5027 11.6227 20.3034C13.4595 20.104 15.2019 19.387 16.6468 18.2359C15.4728 17.3054 14.5255 16.1204 13.8765 14.7704C13.2259 13.4161 12.8892 11.9325 12.8915 10.4301Z" fill="#999999"/>
<path d="M31.6199 16.5852V16.2652H31.7449V16.1992H31.4199V16.2652H31.5479V16.5852H31.6199ZM32.2499 16.5852V16.1992H32.1499L32.0349 16.4742L31.9199 16.1992H31.8219V16.5852H31.8899V16.2922L31.9999 16.5442H32.0729L32.1789 16.2922V16.5852H32.2499Z" fill="#434A58"/>
<path d="M32.5559 10.4289C32.5559 12.2926 32.0359 14.1184 31.0568 15.6961C30.0817 17.2717 28.6825 18.541 27.0194 19.3586C25.3616 20.1731 23.5065 20.5 21.6701 20.3012C19.8336 20.1024 18.0915 19.3861 16.6465 18.2357C17.819 17.3041 18.7651 16.1189 19.4137 14.7693C20.065 13.4153 20.4032 11.9323 20.4032 10.4299C20.4032 8.92758 20.065 7.4445 19.4137 6.09058C18.7652 4.7406 17.8191 3.5551 16.6465 2.62311C18.0915 1.47271 19.8336 0.756401 21.6701 0.557613C23.5065 0.358826 25.3616 0.685738 27.0194 1.50028C28.6825 2.31788 30.0816 3.58713 31.0568 5.16272C32.037 6.74445 32.5555 8.56819 32.5559 10.4289Z" fill="#D3D3D3"/>
</g>
</g>
<defs>
<clipPath id="clip0_1_840">
<rect width="34" height="26" fill="white" transform="translate(0 0.5)"/>
</clipPath>
<clipPath id="clip1_1_840">
<rect width="33.0029" height="24.9962" fill="white" transform="translate(0.273438 0.5)"/>
</clipPath>
</defs>
</svg>
