<svg width="42" height="14" viewBox="0 0 42 14" fill="none" xmlns="http://www.w3.org/2000/svg">
<g clip-path="url(#clip0_1_836)">
<path d="M18.4006 13.3111H15.1733L17.1915 0.72804H20.4188L18.4006 13.3111ZM30.1007 1.03599C29.178 0.677582 28.1962 0.495785 27.2064 0.500074C24.0201 0.500074 21.7759 2.21381 21.7609 4.66244C21.7349 6.47017 23.3681 7.47402 24.5902 8.07592C25.8383 8.69183 26.2633 9.09377 26.2633 9.64269C26.2503 10.4856 25.2542 10.8745 24.3252 10.8745C23.036 10.8745 22.346 10.6745 21.2969 10.2046L20.8719 10.0046L20.4198 12.8282C21.1769 13.1762 22.572 13.4841 24.0201 13.4981C27.4064 13.4981 29.6106 11.8114 29.6366 9.20075C29.6496 7.76897 28.7866 6.67114 26.9274 5.77427C25.7993 5.19836 25.1072 4.81042 25.1072 4.22151C25.1212 3.68559 25.6923 3.13767 26.9674 3.13767C27.7947 3.11364 28.6166 3.27846 29.3706 3.6196L29.6626 3.75258L30.1027 1.03599H30.1007ZM34.3901 8.85281C34.6561 8.12992 35.6792 5.33334 35.6792 5.33334C35.6652 5.35934 35.9442 4.59645 36.1032 4.12852L36.3292 5.21236C36.3292 5.21236 36.9403 8.2239 37.0733 8.85281H34.3901ZM38.3744 0.72804H35.8782C35.1081 0.72804 34.5231 0.956005 34.191 1.77188L29.3966 13.3101H32.7839L33.461 11.4234H37.6043C37.6974 11.8643 37.9894 13.3101 37.9894 13.3101H40.9786L38.3744 0.72804ZM12.4771 0.72804L9.31683 9.30874L8.9708 7.569C8.38675 5.55931 6.55458 3.37964 4.5094 2.2928L7.40466 13.2981H10.817L15.8904 0.730039H12.4771V0.72804Z" fill="black"/>
<path d="M6.38182 0.728516H1.18936L1.13635 0.983477C5.18671 2.02732 7.86895 4.54394 8.97105 7.56948L7.84295 1.78636C7.65693 0.982477 7.08488 0.755512 6.38182 0.728516Z" fill="black"/>
</g>
<defs>
<clipPath id="clip0_1_836">
<rect width="41.0037" height="12.998" fill="white" transform="translate(0.515259 0.5)"/>
</clipPath>
</defs>
</svg>
